<svg width="18" height="19" viewBox="0 0 18 19" fill="none" xmlns="http://www.w3.org/2000/svg">
<g id="cil:calendar">
<path id="Vector" d="M16.5938 3.875H13.5V1.90625H12.375V3.875H5.625V1.90625H4.5V3.875H1.40625C1.18255 3.87526 0.968094 3.96424 0.809916 4.12242C0.651739 4.28059 0.562761 4.49505 0.5625 4.71875V16.5312C0.562761 16.7549 0.651739 16.9694 0.809916 17.1276C0.968094 17.2858 1.18255 17.3747 1.40625 17.375H16.5938C16.8174 17.3747 17.0319 17.2858 17.1901 17.1276C17.3483 16.9694 17.4372 16.7549 17.4375 16.5312V4.71875C17.4372 4.49505 17.3483 4.28059 17.1901 4.12242C17.0319 3.96424 16.8174 3.87526 16.5938 3.875ZM16.3125 16.25H1.6875V5H4.5V6.40625H5.625V5H12.375V6.40625H13.5V5H16.3125V16.25Z" fill="white"/>
<path id="Vector_2" d="M3.9375 8.375H5.0625V9.5H3.9375V8.375Z" fill="white"/>
<path id="Vector_3" d="M7.03125 8.375H8.15625V9.5H7.03125V8.375Z" fill="white"/>
<path id="Vector_4" d="M9.84375 8.375H10.9688V9.5H9.84375V8.375Z" fill="white"/>
<path id="Vector_5" d="M12.9375 8.375H14.0625V9.5H12.9375V8.375Z" fill="white"/>
<path id="Vector_6" d="M3.9375 10.9062H5.0625V12.0312H3.9375V10.9062Z" fill="white"/>
<path id="Vector_7" d="M7.03125 10.9062H8.15625V12.0312H7.03125V10.9062Z" fill="white"/>
<path id="Vector_8" d="M9.84375 10.9062H10.9688V12.0312H9.84375V10.9062Z" fill="white"/>
<path id="Vector_9" d="M12.9375 10.9062H14.0625V12.0312H12.9375V10.9062Z" fill="white"/>
<path id="Vector_10" d="M3.9375 13.4375H5.0625V14.5625H3.9375V13.4375Z" fill="white"/>
<path id="Vector_11" d="M7.03125 13.4375H8.15625V14.5625H7.03125V13.4375Z" fill="white"/>
<path id="Vector_12" d="M9.84375 13.4375H10.9688V14.5625H9.84375V13.4375Z" fill="white"/>
<path id="Vector_13" d="M12.9375 13.4375H14.0625V14.5625H12.9375V13.4375Z" fill="white"/>
</g>
</svg>
