<svg width="18" height="19" viewBox="0 0 18 19" fill="none" xmlns="http://www.w3.org/2000/svg">
<g id="cil:calendar-check">
<path id="Vector" d="M16.5938 3.875H13.5V1.90625H12.375V3.875H5.625V1.90625H4.5V3.875H1.40625C1.18255 3.87526 0.968094 3.96424 0.809916 4.12242C0.651739 4.28059 0.562761 4.49505 0.5625 4.71875V16.5312C0.562761 16.7549 0.651739 16.9694 0.809916 17.1276C0.968094 17.2858 1.18255 17.3747 1.40625 17.375H16.5938C16.8174 17.3747 17.0319 17.2858 17.1901 17.1276C17.3483 16.9694 17.4372 16.7549 17.4375 16.5312V4.71875C17.4372 4.49505 17.3483 4.28059 17.1901 4.12242C17.0319 3.96424 16.8174 3.87526 16.5938 3.875ZM16.3125 16.25H1.6875V5H4.5V6.40625H5.625V5H12.375V6.40625H13.5V5H16.3125V16.25Z" fill="white"/>
<path id="Vector_2" d="M8.55688 11.5172L6.64491 9.60519L5.84943 10.4007L8.55688 13.1081L12.973 8.69197L12.1775 7.89648L8.55688 11.5172Z" fill="white"/>
</g>
</svg>
