<svg width="18" height="19" viewBox="0 0 18 19" fill="none" xmlns="http://www.w3.org/2000/svg">
<g id="cil:cash">
<path id="Vector" d="M15.1875 2.75H0.5625V14H15.1875V2.75ZM14.0625 12.875H1.6875V3.875H14.0625V12.875Z" fill="white"/>
<path id="Vector_2" d="M16.3125 5.5625V15.125H3.375V16.25H17.4375V5.5625H16.3125Z" fill="white"/>
<path id="Vector_3" d="M7.875 11.1333C9.2707 11.1333 10.4062 9.89799 10.4062 8.37963C10.4062 6.86126 9.2707 5.62598 7.875 5.62598C6.4793 5.62598 5.34375 6.86123 5.34375 8.37963C5.34375 9.89803 6.4793 11.1333 7.875 11.1333ZM7.875 6.75098C8.65041 6.75098 9.28125 7.4816 9.28125 8.37963C9.28125 9.27766 8.65041 10.0083 7.875 10.0083C7.09959 10.0083 6.46875 9.27766 6.46875 8.37963C6.46875 7.4816 7.09959 6.75098 7.875 6.75098Z" fill="white"/>
<path id="Vector_4" d="M2.8125 5.28125H3.9375V11.4688H2.8125V5.28125Z" fill="white"/>
<path id="Vector_5" d="M11.8125 5.28125H12.9375V11.4688H11.8125V5.28125Z" fill="white"/>
</g>
</svg>
