<svg width="19" height="19" viewBox="0 0 19 19" fill="none" xmlns="http://www.w3.org/2000/svg">
<g id="cil:drop">
<path id="Vector" d="M4.55772 10.7424L8.9578 17.6151C9.00869 17.6945 9.07874 17.7599 9.16153 17.8052C9.24432 17.8505 9.33717 17.8743 9.43153 17.8743C9.5259 17.8743 9.61875 17.8505 9.70154 17.8052C9.78432 17.7599 9.85438 17.6945 9.90527 17.6151L14.3055 10.7423C15.0683 9.70749 15.4783 8.45484 15.4749 7.16922C15.4749 3.83694 12.7639 1.12586 9.43154 1.12586C6.09918 1.12586 3.38818 3.83687 3.38818 7.16922C3.38478 8.45488 3.7948 9.70757 4.55772 10.7424V10.7424ZM9.43154 2.25086C12.1435 2.25086 14.3499 4.4572 14.3499 7.16922C14.3528 8.22064 14.0159 9.24484 13.3894 10.0892C13.3819 10.0994 13.3748 10.1097 13.368 10.1203L9.43153 16.2685L5.49519 10.1203C5.48844 10.1097 5.48132 10.0993 5.47382 10.0892C4.84729 9.24483 4.51034 8.22064 4.51318 7.16922C4.51318 4.45723 6.71958 2.25086 9.43154 2.25086V2.25086Z" fill="#343F5B"/>
<path id="Ellipse 97 (Stroke)" fill-rule="evenodd" clip-rule="evenodd" d="M9.43158 9.125C10.4671 9.125 11.3066 8.28553 11.3066 7.25C11.3066 6.21447 10.4671 5.375 9.43158 5.375C8.39605 5.375 7.55658 6.21447 7.55658 7.25C7.55658 8.28553 8.39605 9.125 9.43158 9.125ZM9.43158 10.25C11.0884 10.25 12.4316 8.90685 12.4316 7.25C12.4316 5.59315 11.0884 4.25 9.43158 4.25C7.77473 4.25 6.43158 5.59315 6.43158 7.25C6.43158 8.90685 7.77473 10.25 9.43158 10.25Z" fill="#343F5B"/>
</g>
</svg>
